<?xml version="1.0" encoding="UTF-8"?>
<svg xmlns="http://www.w3.org/2000/svg" xmlns:xlink="http://www.w3.org/1999/xlink" width="60px" height="60px" viewBox="0 0 60 60" version="1.1">
<defs>
<clipPath id="clip1">
  <path d="M 15.859375 16.703125 L 44.136719 16.703125 L 44.136719 43.082031 L 15.859375 43.082031 Z M 15.859375 16.703125 "/>
</clipPath>
<clipPath id="clip2">
  <path d="M 0.0078125 18 L 8 18 L 8 24 L 0.0078125 24 Z M 0.0078125 18 "/>
</clipPath>
<clipPath id="clip3">
  <path d="M 53 18 L 59.992188 18 L 59.992188 24 L 53 24 Z M 53 18 "/>
</clipPath>
<clipPath id="clip4">
  <path d="M 0.0078125 27 L 5 27 L 5 33 L 0.0078125 33 Z M 0.0078125 27 "/>
</clipPath>
<clipPath id="clip5">
  <path d="M 55 27 L 59.992188 27 L 59.992188 33 L 55 33 Z M 55 27 "/>
</clipPath>
<clipPath id="clip6">
  <path d="M 20 53 L 25 53 L 25 59.785156 L 20 59.785156 Z M 20 53 "/>
</clipPath>
<clipPath id="clip7">
  <path d="M 28 55 L 33 55 L 33 59.785156 L 28 59.785156 Z M 28 55 "/>
</clipPath>
</defs>
<g id="surface1">
<g clip-path="url(#clip1)" clip-rule="nonzero">
<path style=" stroke:none;fill-rule:nonzero;fill:rgb(0%,45.490196%,85.098039%);fill-opacity:1;" d="M 41.75 39.160156 L 41.75 37.101562 L 39.75 37.101562 L 39.75 28.308594 L 43.296875 28.308594 L 43.492188 25.195312 L 30 16.703125 L 16.507812 25.195312 L 16.699219 28.308594 L 20.25 28.308594 L 20.25 37.101562 L 18.25 37.101562 L 18.25 39.160156 L 15.859375 39.160156 L 15.859375 43.082031 L 44.140625 43.082031 L 44.140625 39.160156 Z M 23.253906 37.101562 L 23.253906 28.308594 L 25.351562 28.308594 L 25.351562 37.101562 Z M 30 37.101562 L 28.355469 37.101562 L 28.355469 28.308594 L 31.644531 28.308594 L 31.644531 37.101562 Z M 34.648438 37.101562 L 34.648438 28.308594 L 36.746094 28.308594 L 36.746094 37.101562 Z M 34.648438 37.101562 "/>
</g>
<g clip-path="url(#clip2)" clip-rule="nonzero">
<path style=" stroke:none;fill-rule:nonzero;fill:rgb(39.607843%,45.882353%,65.882353%);fill-opacity:1;" d="M 7.710938 18.433594 L 7.425781 19.1875 L 5.207031 19.207031 L 4.363281 21.453125 L 6.015625 22.921875 L 5.734375 23.675781 L 0.890625 19.296875 L 1.171875 18.550781 Z M 1.859375 19.234375 L 3.839844 20.992188 L 4.511719 19.210938 Z M 1.859375 19.234375 "/>
</g>
<path style=" stroke:none;fill-rule:nonzero;fill:rgb(39.607843%,45.882353%,65.882353%);fill-opacity:1;" d="M 10.039062 14.992188 L 9.566406 15.539062 L 7.503906 13.773438 C 7.175781 13.492188 6.921875 13.289062 6.742188 13.160156 C 6.605469 13.054688 6.421875 12.945312 6.191406 12.832031 L 6.527344 12.207031 C 6.691406 12.277344 6.839844 12.355469 6.972656 12.441406 C 7.023438 12.46875 7.152344 12.558594 7.351562 12.707031 L 7.40625 12.640625 C 7.28125 12.34375 7.230469 12.0625 7.246094 11.789062 C 7.257812 11.492188 7.359375 11.230469 7.554688 11.003906 C 7.664062 10.875 7.792969 10.773438 7.941406 10.691406 C 8.089844 10.613281 8.242188 10.566406 8.394531 10.558594 C 8.621094 10.539062 8.871094 10.605469 9.148438 10.753906 L 9.183594 10.714844 C 9.046875 10.375 8.984375 10.0625 9 9.777344 C 9.011719 9.464844 9.117188 9.191406 9.3125 8.960938 C 9.554688 8.683594 9.816406 8.535156 10.101562 8.519531 C 10.34375 8.5 10.621094 8.578125 10.933594 8.753906 C 11.164062 8.882812 11.453125 9.097656 11.800781 9.394531 L 13.5625 10.90625 L 13.089844 11.453125 L 11.171875 9.8125 C 11.003906 9.667969 10.855469 9.558594 10.730469 9.484375 C 10.535156 9.371094 10.359375 9.308594 10.199219 9.304688 C 10.003906 9.304688 9.832031 9.390625 9.679688 9.5625 C 9.511719 9.761719 9.449219 10.023438 9.496094 10.347656 C 9.519531 10.546875 9.59375 10.816406 9.710938 11.15625 C 9.75 11.183594 9.804688 11.230469 9.875 11.289062 L 11.808594 12.941406 L 11.332031 13.492188 L 9.417969 11.851562 C 9.144531 11.617188 8.914062 11.464844 8.722656 11.394531 C 8.410156 11.28125 8.144531 11.347656 7.929688 11.597656 C 7.761719 11.789062 7.703125 12.054688 7.746094 12.390625 C 7.769531 12.585938 7.851562 12.867188 7.984375 13.230469 Z M 10.039062 14.992188 "/>
<path style=" stroke:none;fill-rule:nonzero;fill:rgb(39.607843%,45.882353%,65.882353%);fill-opacity:1;" d="M 13.972656 3.246094 C 14.082031 3.179688 14.203125 3.15625 14.332031 3.183594 C 14.460938 3.21875 14.5625 3.289062 14.632812 3.398438 C 14.703125 3.515625 14.726562 3.636719 14.695312 3.761719 C 14.667969 3.894531 14.597656 3.996094 14.488281 4.066406 C 14.375 4.136719 14.25 4.15625 14.117188 4.128906 C 13.988281 4.101562 13.886719 4.03125 13.8125 3.914062 C 13.742188 3.800781 13.71875 3.679688 13.75 3.546875 C 13.785156 3.417969 13.859375 3.320312 13.972656 3.246094 Z M 16.90625 8.59375 L 14.566406 4.882812 L 15.179688 4.496094 L 17.519531 8.207031 Z M 16.90625 8.59375 "/>
<path style=" stroke:none;fill-rule:nonzero;fill:rgb(39.607843%,45.882353%,65.882353%);fill-opacity:1;" d="M 20.105469 2.347656 L 20.730469 1.992188 C 20.832031 2.136719 20.917969 2.28125 20.984375 2.425781 C 21.015625 2.496094 21.074219 2.632812 21.160156 2.84375 L 21.246094 2.816406 C 21.308594 2.5 21.425781 2.226562 21.59375 2 C 21.777344 1.75 22.003906 1.582031 22.269531 1.5 C 22.671875 1.378906 23.003906 1.378906 23.273438 1.507812 C 23.507812 1.617188 23.710938 1.828125 23.882812 2.144531 C 24 2.363281 24.128906 2.699219 24.273438 3.152344 L 24.957031 5.359375 L 24.261719 5.574219 L 23.519531 3.175781 C 23.394531 2.773438 23.265625 2.5 23.136719 2.355469 C 22.941406 2.136719 22.667969 2.078125 22.320312 2.1875 C 22.070312 2.261719 21.863281 2.457031 21.699219 2.765625 C 21.589844 2.972656 21.492188 3.257812 21.40625 3.617188 L 22.210938 6.207031 L 21.515625 6.421875 L 20.714844 3.84375 C 20.601562 3.480469 20.496094 3.171875 20.398438 2.914062 C 20.335938 2.753906 20.238281 2.566406 20.105469 2.347656 Z M 20.105469 2.347656 "/>
<path style=" stroke:none;fill-rule:nonzero;fill:rgb(39.607843%,45.882353%,65.882353%);fill-opacity:1;" d="M 32.035156 4.171875 L 32.242188 4.742188 C 31.929688 4.863281 31.636719 4.953125 31.359375 5.003906 C 31.085938 5.054688 30.839844 5.078125 30.621094 5.078125 C 30.289062 5.078125 30 5.023438 29.753906 4.914062 C 29.503906 4.808594 29.296875 4.660156 29.132812 4.464844 C 28.972656 4.273438 28.847656 4.042969 28.769531 3.777344 C 28.6875 3.511719 28.644531 3.21875 28.648438 2.898438 C 28.648438 2.703125 28.664062 2.503906 28.695312 2.308594 C 28.722656 2.113281 28.769531 1.925781 28.832031 1.746094 C 28.898438 1.570312 28.980469 1.402344 29.078125 1.25 C 29.179688 1.09375 29.304688 0.960938 29.449219 0.851562 C 29.59375 0.738281 29.761719 0.652344 29.953125 0.589844 C 30.144531 0.527344 30.363281 0.496094 30.609375 0.496094 C 31.238281 0.5 31.710938 0.699219 32.023438 1.09375 C 32.339844 1.488281 32.496094 2.050781 32.492188 2.78125 L 32.492188 3.011719 L 29.394531 2.992188 C 29.394531 3.226562 29.417969 3.4375 29.46875 3.621094 C 29.515625 3.800781 29.59375 3.953125 29.699219 4.078125 C 29.804688 4.207031 29.9375 4.300781 30.097656 4.367188 C 30.261719 4.433594 30.453125 4.464844 30.675781 4.464844 C 30.800781 4.46875 30.921875 4.460938 31.046875 4.441406 C 31.167969 4.425781 31.289062 4.402344 31.40625 4.371094 C 31.519531 4.34375 31.628906 4.3125 31.734375 4.277344 C 31.84375 4.238281 31.941406 4.207031 32.035156 4.171875 Z M 29.421875 2.410156 L 31.761719 2.425781 C 31.742188 1.972656 31.636719 1.636719 31.441406 1.425781 C 31.246094 1.214844 30.96875 1.109375 30.605469 1.109375 C 30.242188 1.105469 29.964844 1.207031 29.773438 1.414062 C 29.582031 1.625 29.464844 1.957031 29.421875 2.410156 Z M 29.421875 2.410156 "/>
<path style=" stroke:none;fill-rule:nonzero;fill:rgb(39.607843%,45.882353%,65.882353%);fill-opacity:1;" d="M 38.210938 0 L 40.035156 0.585938 C 40.304688 0.675781 40.554688 0.777344 40.785156 0.898438 C 41.011719 1.015625 41.195312 1.15625 41.34375 1.320312 C 41.488281 1.480469 41.582031 1.667969 41.628906 1.882812 C 41.675781 2.097656 41.65625 2.339844 41.5625 2.617188 C 41.511719 2.785156 41.445312 2.925781 41.363281 3.042969 C 41.285156 3.15625 41.195312 3.253906 41.097656 3.332031 C 40.996094 3.40625 40.882812 3.464844 40.761719 3.503906 C 40.640625 3.542969 40.507812 3.570312 40.371094 3.578125 L 40.371094 3.582031 C 40.503906 3.667969 40.628906 3.773438 40.738281 3.894531 C 40.847656 4.015625 40.9375 4.152344 41 4.304688 C 41.0625 4.457031 41.097656 4.625 41.105469 4.8125 C 41.109375 4.996094 41.082031 5.191406 41.011719 5.398438 C 40.914062 5.703125 40.777344 5.941406 40.601562 6.121094 C 40.421875 6.300781 40.21875 6.429688 39.988281 6.503906 C 39.753906 6.578125 39.496094 6.605469 39.21875 6.589844 C 38.941406 6.570312 38.65625 6.511719 38.359375 6.417969 L 36.339844 5.765625 Z M 38.195312 2.613281 L 39.253906 2.953125 C 39.445312 3.015625 39.621094 3.054688 39.785156 3.070312 C 39.949219 3.089844 40.097656 3.078125 40.226562 3.035156 C 40.359375 2.992188 40.472656 2.917969 40.570312 2.808594 C 40.671875 2.703125 40.75 2.554688 40.8125 2.367188 C 40.863281 2.207031 40.871094 2.0625 40.839844 1.9375 C 40.804688 1.808594 40.742188 1.699219 40.644531 1.605469 C 40.550781 1.507812 40.429688 1.425781 40.289062 1.355469 C 40.144531 1.285156 39.992188 1.222656 39.832031 1.171875 L 38.777344 0.832031 Z M 37.285156 5.425781 L 38.546875 5.832031 C 38.734375 5.894531 38.917969 5.925781 39.101562 5.929688 C 39.28125 5.933594 39.449219 5.910156 39.597656 5.855469 C 39.75 5.800781 39.882812 5.714844 39.996094 5.601562 C 40.113281 5.480469 40.199219 5.332031 40.257812 5.152344 C 40.316406 4.96875 40.335938 4.796875 40.308594 4.636719 C 40.28125 4.480469 40.226562 4.332031 40.136719 4.199219 C 40.046875 4.066406 39.925781 3.949219 39.777344 3.847656 C 39.625 3.746094 39.457031 3.667969 39.269531 3.605469 L 38.007812 3.199219 Z M 37.285156 5.425781 "/>
<path style=" stroke:none;fill-rule:nonzero;fill:rgb(39.607843%,45.882353%,65.882353%);fill-opacity:1;" d="M 46.109375 6.292969 L 46.304688 5.707031 C 46.800781 5.832031 47.257812 6.046875 47.679688 6.347656 C 48.046875 6.613281 48.285156 6.878906 48.390625 7.140625 C 48.507812 7.441406 48.445312 7.761719 48.199219 8.101562 L 47.183594 9.496094 C 47.050781 9.683594 46.914062 9.875 46.777344 10.074219 C 46.695312 10.195312 46.617188 10.324219 46.546875 10.460938 C 46.480469 10.59375 46.421875 10.722656 46.375 10.851562 L 45.722656 10.570312 C 45.78125 10.378906 45.871094 10.183594 45.996094 9.988281 L 45.929688 9.929688 C 45.390625 10.082031 44.898438 10 44.460938 9.683594 C 44.140625 9.453125 43.949219 9.179688 43.882812 8.863281 C 43.816406 8.546875 43.898438 8.226562 44.132812 7.90625 C 44.304688 7.667969 44.503906 7.507812 44.71875 7.433594 C 44.933594 7.355469 45.179688 7.335938 45.449219 7.371094 C 45.875 7.425781 46.363281 7.652344 46.914062 8.046875 C 46.988281 8.101562 47.085938 8.171875 47.203125 8.265625 L 47.582031 7.75 C 47.699219 7.585938 47.734375 7.429688 47.6875 7.285156 C 47.640625 7.140625 47.511719 6.988281 47.296875 6.835938 C 46.980469 6.609375 46.585938 6.429688 46.109375 6.292969 Z M 46.371094 9.414062 L 46.890625 8.699219 C 46.835938 8.648438 46.746094 8.582031 46.625 8.496094 C 46.425781 8.351562 46.230469 8.234375 46.035156 8.148438 C 45.746094 8.015625 45.492188 7.957031 45.277344 7.964844 C 45.0625 7.972656 44.878906 8.078125 44.734375 8.28125 C 44.46875 8.644531 44.535156 8.96875 44.933594 9.257812 C 45.140625 9.40625 45.371094 9.488281 45.625 9.507812 C 45.839844 9.523438 46.089844 9.492188 46.371094 9.414062 Z M 46.371094 9.414062 "/>
<path style=" stroke:none;fill-rule:nonzero;fill:rgb(39.607843%,45.882353%,65.882353%);fill-opacity:1;" d="M 52.480469 11.09375 L 53.03125 11.554688 C 52.929688 11.699219 52.824219 11.828125 52.710938 11.941406 C 52.660156 11.996094 52.546875 12.097656 52.378906 12.25 L 52.433594 12.320312 C 52.753906 12.269531 53.050781 12.285156 53.324219 12.363281 C 53.621094 12.449219 53.855469 12.601562 54.027344 12.824219 C 54.28125 13.15625 54.394531 13.46875 54.367188 13.765625 C 54.347656 14.019531 54.21875 14.28125 53.980469 14.554688 C 53.816406 14.738281 53.542969 14.976562 53.164062 15.265625 L 51.324219 16.671875 L 50.882812 16.09375 L 52.882812 14.570312 C 53.214844 14.316406 53.429688 14.101562 53.523438 13.929688 C 53.664062 13.667969 53.621094 13.394531 53.398438 13.105469 C 53.238281 12.898438 52.988281 12.773438 52.640625 12.726562 C 52.40625 12.695312 52.105469 12.703125 51.734375 12.75 L 49.574219 14.394531 L 49.132812 13.820312 L 51.28125 12.179688 C 51.585938 11.949219 51.839844 11.742188 52.046875 11.5625 C 52.179688 11.449219 52.324219 11.292969 52.480469 11.09375 Z M 52.480469 11.09375 "/>
<g clip-path="url(#clip3)" clip-rule="nonzero">
<path style=" stroke:none;fill-rule:nonzero;fill:rgb(39.607843%,45.882353%,65.882353%);fill-opacity:1;" d="M 53.085938 20.28125 L 58.804688 18.195312 L 59.050781 18.875 L 55.613281 20.128906 L 58.234375 21.273438 L 57.964844 21.882812 L 55.71875 20.882812 L 54.332031 23.679688 L 54.023438 22.835938 L 55.320312 20.238281 L 53.335938 20.960938 Z M 53.085938 20.28125 "/>
</g>
<g clip-path="url(#clip4)" clip-rule="nonzero">
<path style=" stroke:none;fill-rule:nonzero;fill:rgb(39.607843%,45.882353%,65.882353%);fill-opacity:1;" d="M 0.328125 30.035156 C 0.328125 28.753906 1.371094 27.710938 2.65625 27.710938 C 3.945312 27.710938 4.988281 28.753906 4.988281 30.035156 C 4.988281 31.320312 3.945312 32.359375 2.65625 32.359375 C 1.371094 32.359375 0.324219 31.320312 0.328125 30.035156 Z M 0.328125 30.035156 "/>
</g>
<g clip-path="url(#clip5)" clip-rule="nonzero">
<path style=" stroke:none;fill-rule:nonzero;fill:rgb(39.607843%,45.882353%,65.882353%);fill-opacity:1;" d="M 55.011719 30.035156 C 55.011719 28.753906 56.054688 27.710938 57.34375 27.710938 C 58.628906 27.710938 59.675781 28.753906 59.671875 30.035156 C 59.671875 31.320312 58.628906 32.359375 57.34375 32.359375 C 56.054688 32.359375 55.011719 31.320312 55.011719 30.035156 Z M 55.011719 30.035156 "/>
</g>
<path style=" stroke:none;fill-rule:nonzero;fill:rgb(39.607843%,45.882353%,65.882353%);fill-opacity:1;" d="M 3.410156 43.277344 L 3.125 42.519531 L 4.785156 41.042969 L 3.933594 38.789062 L 1.707031 38.769531 L 1.421875 38.011719 L 7.988281 38.125 L 8.273438 38.875 Z M 7.296875 38.808594 L 4.632812 38.792969 L 5.308594 40.578125 Z M 7.296875 38.808594 "/>
<path style=" stroke:none;fill-rule:nonzero;fill:rgb(39.607843%,45.882353%,65.882353%);fill-opacity:1;" d="M 6.554688 48.078125 L 6.078125 47.527344 L 8.148438 45.753906 C 8.480469 45.46875 8.722656 45.25 8.875 45.089844 C 9 44.96875 9.132812 44.804688 9.28125 44.59375 L 9.855469 45.019531 C 9.761719 45.171875 9.664062 45.304688 9.558594 45.425781 C 9.519531 45.472656 9.414062 45.585938 9.234375 45.761719 L 9.292969 45.828125 C 9.605469 45.746094 9.894531 45.738281 10.160156 45.796875 C 10.457031 45.847656 10.703125 45.988281 10.902344 46.21875 C 11.011719 46.34375 11.09375 46.488281 11.152344 46.648438 C 11.210938 46.808594 11.230469 46.964844 11.21875 47.117188 C 11.203125 47.339844 11.101562 47.582031 10.910156 47.835938 L 10.941406 47.875 C 11.300781 47.789062 11.621094 47.773438 11.90625 47.835938 C 12.214844 47.890625 12.472656 48.035156 12.667969 48.265625 C 12.914062 48.546875 13.019531 48.832031 12.992188 49.113281 C 12.972656 49.355469 12.855469 49.621094 12.632812 49.902344 C 12.46875 50.109375 12.214844 50.363281 11.863281 50.660156 L 10.09375 52.179688 L 9.617188 51.628906 L 11.542969 49.976562 C 11.710938 49.832031 11.84375 49.703125 11.9375 49.589844 C 12.078125 49.414062 12.164062 49.25 12.191406 49.089844 C 12.222656 48.894531 12.164062 48.710938 12.015625 48.539062 C 11.84375 48.34375 11.59375 48.242188 11.261719 48.238281 C 11.058594 48.234375 10.78125 48.265625 10.421875 48.332031 C 10.390625 48.367188 10.339844 48.414062 10.269531 48.476562 L 8.328125 50.136719 L 7.851562 49.585938 L 9.777344 47.933594 C 10.050781 47.699219 10.238281 47.492188 10.335938 47.316406 C 10.496094 47.019531 10.46875 46.75 10.253906 46.5 C 10.085938 46.304688 9.832031 46.207031 9.488281 46.199219 C 9.292969 46.191406 9 46.230469 8.617188 46.308594 Z M 6.554688 48.078125 "/>
<path style=" stroke:none;fill-rule:nonzero;fill:rgb(39.607843%,45.882353%,65.882353%);fill-opacity:1;" d="M 18.039062 50.398438 C 18.152344 50.464844 18.222656 50.566406 18.257812 50.695312 C 18.285156 50.828125 18.261719 50.949219 18.191406 51.0625 C 18.117188 51.175781 18.015625 51.25 17.886719 51.277344 C 17.753906 51.308594 17.632812 51.289062 17.523438 51.21875 C 17.40625 51.144531 17.335938 51.042969 17.304688 50.914062 C 17.273438 50.785156 17.292969 50.664062 17.367188 50.546875 C 17.4375 50.429688 17.539062 50.359375 17.671875 50.328125 C 17.804688 50.304688 17.925781 50.324219 18.039062 50.398438 Z M 14.464844 55.371094 L 16.8125 51.644531 L 17.433594 52.03125 L 15.082031 55.757812 Z M 14.464844 55.371094 "/>
<g clip-path="url(#clip6)" clip-rule="nonzero">
<path style=" stroke:none;fill-rule:nonzero;fill:rgb(39.607843%,45.882353%,65.882353%);fill-opacity:1;" d="M 21.300781 53.863281 L 22.019531 53.921875 C 22.023438 54.097656 22.011719 54.265625 21.984375 54.421875 C 21.972656 54.5 21.941406 54.648438 21.890625 54.867188 L 21.976562 54.894531 C 22.210938 54.667969 22.460938 54.507812 22.730469 54.414062 C 23.027344 54.308594 23.308594 54.300781 23.578125 54.382812 C 23.980469 54.503906 24.253906 54.695312 24.40625 54.957031 C 24.539062 55.175781 24.585938 55.46875 24.550781 55.828125 C 24.523438 56.074219 24.441406 56.425781 24.296875 56.886719 L 23.609375 59.101562 L 22.914062 58.886719 L 23.660156 56.476562 C 23.785156 56.074219 23.835938 55.773438 23.808594 55.578125 C 23.773438 55.285156 23.578125 55.085938 23.226562 54.976562 C 22.976562 54.902344 22.699219 54.945312 22.386719 55.109375 C 22.175781 55.21875 21.933594 55.398438 21.65625 55.652344 L 20.851562 58.25 L 20.15625 58.035156 L 20.957031 55.449219 C 21.070312 55.085938 21.15625 54.765625 21.21875 54.496094 C 21.261719 54.328125 21.285156 54.117188 21.300781 53.863281 Z M 21.300781 53.863281 "/>
</g>
<g clip-path="url(#clip7)" clip-rule="nonzero">
<path style=" stroke:none;fill-rule:nonzero;fill:rgb(39.607843%,45.882353%,65.882353%);fill-opacity:1;" d="M 32.0625 58.859375 L 32.277344 59.429688 C 31.964844 59.554688 31.671875 59.648438 31.394531 59.703125 C 31.121094 59.757812 30.871094 59.785156 30.65625 59.785156 C 30.320312 59.789062 30.03125 59.738281 29.78125 59.632812 C 29.53125 59.527344 29.320312 59.382812 29.15625 59.191406 C 28.988281 59 28.863281 58.769531 28.777344 58.503906 C 28.691406 58.238281 28.648438 57.945312 28.644531 57.625 C 28.644531 57.425781 28.65625 57.226562 28.683594 57.03125 C 28.710938 56.832031 28.753906 56.644531 28.816406 56.464844 C 28.875 56.285156 28.957031 56.117188 29.058594 55.960938 C 29.15625 55.804688 29.277344 55.671875 29.421875 55.558594 C 29.566406 55.445312 29.734375 55.355469 29.925781 55.289062 C 30.117188 55.222656 30.335938 55.1875 30.582031 55.1875 C 31.214844 55.183594 31.691406 55.375 32.015625 55.769531 C 32.335938 56.160156 32.5 56.722656 32.503906 57.457031 L 32.507812 57.6875 L 29.398438 57.707031 C 29.398438 57.945312 29.425781 58.15625 29.480469 58.335938 C 29.53125 58.515625 29.609375 58.671875 29.714844 58.796875 C 29.824219 58.921875 29.960938 59.015625 30.121094 59.078125 C 30.285156 59.140625 30.480469 59.171875 30.703125 59.171875 C 30.828125 59.171875 30.949219 59.160156 31.074219 59.144531 C 31.195312 59.125 31.316406 59.097656 31.433594 59.066406 C 31.546875 59.039062 31.660156 59.003906 31.765625 58.964844 C 31.871094 58.929688 31.96875 58.894531 32.0625 58.859375 Z M 29.414062 57.125 L 31.765625 57.109375 C 31.742188 56.652344 31.632812 56.316406 31.433594 56.109375 C 31.234375 55.902344 30.953125 55.796875 30.585938 55.800781 C 30.222656 55.804688 29.945312 55.910156 29.753906 56.121094 C 29.566406 56.332031 29.453125 56.664062 29.414062 57.125 Z M 29.414062 57.125 "/>
</g>
<path style=" stroke:none;fill-rule:nonzero;fill:rgb(39.607843%,45.882353%,65.882353%);fill-opacity:1;" d="M 35.867188 52.886719 L 37.699219 52.292969 C 37.972656 52.207031 38.238281 52.144531 38.496094 52.105469 C 38.75 52.070312 38.984375 52.078125 39.199219 52.121094 C 39.410156 52.167969 39.601562 52.265625 39.761719 52.410156 C 39.929688 52.558594 40.054688 52.769531 40.144531 53.050781 C 40.199219 53.214844 40.226562 53.367188 40.230469 53.511719 C 40.238281 53.652344 40.222656 53.78125 40.183594 53.90625 C 40.148438 54.027344 40.089844 54.136719 40.015625 54.242188 C 39.9375 54.34375 39.847656 54.441406 39.742188 54.527344 L 39.742188 54.535156 C 39.902344 54.523438 40.066406 54.539062 40.226562 54.570312 C 40.386719 54.605469 40.539062 54.667969 40.679688 54.753906 C 40.820312 54.84375 40.949219 54.957031 41.0625 55.105469 C 41.179688 55.25 41.269531 55.429688 41.335938 55.636719 C 41.433594 55.9375 41.464844 56.214844 41.429688 56.464844 C 41.390625 56.714844 41.296875 56.9375 41.152344 57.136719 C 41.007812 57.335938 40.816406 57.507812 40.582031 57.65625 C 40.34375 57.804688 40.078125 57.925781 39.777344 58.019531 L 37.75 58.675781 Z M 37.402344 55.019531 L 38.460938 54.679688 C 38.65625 54.617188 38.824219 54.542969 38.964844 54.460938 C 39.109375 54.378906 39.222656 54.285156 39.300781 54.171875 C 39.382812 54.0625 39.433594 53.933594 39.449219 53.789062 C 39.46875 53.640625 39.445312 53.472656 39.382812 53.285156 C 39.332031 53.125 39.253906 53.003906 39.152344 52.917969 C 39.050781 52.835938 38.933594 52.785156 38.800781 52.761719 C 38.664062 52.742188 38.515625 52.742188 38.359375 52.769531 C 38.199219 52.796875 38.039062 52.835938 37.878906 52.886719 L 36.820312 53.226562 Z M 38.316406 57.84375 L 39.585938 57.433594 C 39.773438 57.371094 39.945312 57.289062 40.09375 57.191406 C 40.242188 57.089844 40.363281 56.972656 40.453125 56.835938 C 40.542969 56.703125 40.601562 56.558594 40.628906 56.394531 C 40.652344 56.230469 40.636719 56.058594 40.574219 55.878906 C 40.515625 55.695312 40.429688 55.546875 40.3125 55.429688 C 40.199219 55.316406 40.066406 55.230469 39.914062 55.175781 C 39.761719 55.121094 39.597656 55.09375 39.414062 55.097656 C 39.234375 55.105469 39.050781 55.136719 38.863281 55.199219 L 37.589844 55.605469 Z M 38.316406 57.84375 "/>
<path style=" stroke:none;fill-rule:nonzero;fill:rgb(39.607843%,45.882353%,65.882353%);fill-opacity:1;" d="M 44.554688 51.640625 L 44.054688 51.269531 C 44.328125 50.839844 44.675781 50.472656 45.097656 50.167969 C 45.46875 49.902344 45.796875 49.761719 46.078125 49.746094 C 46.40625 49.726562 46.691406 49.886719 46.9375 50.226562 L 47.957031 51.628906 C 48.089844 51.816406 48.234375 52.007812 48.382812 52.203125 C 48.46875 52.316406 48.566406 52.429688 48.679688 52.539062 C 48.785156 52.644531 48.890625 52.742188 49 52.828125 L 48.523438 53.355469 C 48.359375 53.242188 48.203125 53.09375 48.050781 52.914062 L 47.976562 52.957031 C 47.949219 53.519531 47.714844 53.960938 47.273438 54.277344 C 46.953125 54.507812 46.632812 54.605469 46.308594 54.566406 C 45.984375 54.53125 45.707031 54.351562 45.472656 54.03125 C 45.296875 53.789062 45.210938 53.554688 45.207031 53.324219 C 45.199219 53.09375 45.257812 52.855469 45.375 52.609375 C 45.5625 52.222656 45.933594 51.828125 46.484375 51.429688 C 46.558594 51.375 46.660156 51.308594 46.785156 51.222656 L 46.410156 50.703125 C 46.289062 50.539062 46.152344 50.457031 45.996094 50.453125 C 45.84375 50.457031 45.660156 50.53125 45.445312 50.6875 C 45.128906 50.914062 44.832031 51.234375 44.554688 51.640625 Z M 47.621094 52.378906 L 47.101562 51.65625 C 47.035156 51.699219 46.941406 51.761719 46.824219 51.84375 C 46.621094 51.992188 46.449219 52.140625 46.304688 52.296875 C 46.085938 52.53125 45.949219 52.75 45.886719 52.960938 C 45.828125 53.167969 45.871094 53.375 46.019531 53.578125 C 46.285156 53.941406 46.617188 53.980469 47.015625 53.695312 C 47.222656 53.546875 47.375 53.351562 47.476562 53.113281 C 47.554688 52.917969 47.605469 52.671875 47.621094 52.378906 Z M 47.621094 52.378906 "/>
<path style=" stroke:none;fill-rule:nonzero;fill:rgb(39.607843%,45.882353%,65.882353%);fill-opacity:1;" d="M 49.253906 46.535156 L 49.558594 45.878906 C 49.722656 45.941406 49.878906 46.011719 50.019531 46.089844 C 50.085938 46.125 50.214844 46.207031 50.402344 46.328125 L 50.457031 46.257812 C 50.324219 45.960938 50.261719 45.671875 50.265625 45.386719 C 50.269531 45.074219 50.359375 44.808594 50.53125 44.585938 C 50.785156 44.253906 51.0625 44.058594 51.359375 44.007812 C 51.609375 43.960938 51.898438 44.019531 52.230469 44.175781 C 52.449219 44.285156 52.753906 44.488281 53.136719 44.777344 L 54.984375 46.1875 L 54.539062 46.765625 L 52.527344 45.234375 C 52.195312 44.976562 51.929688 44.828125 51.738281 44.78125 C 51.449219 44.714844 51.191406 44.828125 50.96875 45.121094 C 50.8125 45.324219 50.753906 45.601562 50.800781 45.949219 C 50.832031 46.183594 50.917969 46.472656 51.058594 46.820312 L 53.226562 48.472656 L 52.785156 49.050781 L 50.625 47.40625 C 50.324219 47.171875 50.054688 46.980469 49.824219 46.828125 C 49.675781 46.734375 49.488281 46.636719 49.253906 46.535156 Z M 49.253906 46.535156 "/>
<path style=" stroke:none;fill-rule:nonzero;fill:rgb(39.607843%,45.882353%,65.882353%);fill-opacity:1;" d="M 57.402344 41.382812 L 51.664062 39.285156 L 51.914062 38.601562 L 55.367188 39.863281 L 54.101562 37.292969 L 54.703125 37.003906 L 55.773438 39.21875 L 58.660156 37.96875 L 58.347656 38.820312 L 55.664062 39.972656 L 57.65625 40.699219 Z M 57.402344 41.382812 "/>
</g>
</svg>
